<svg width="228" height="184" viewBox="0 0 228 184" fill="none" xmlns="http://www.w3.org/2000/svg">
<path d="M87.1245 0.0041596C58.7871 -0.424182 36.2393 35.3795 46.5374 64.0361C54.3265 85.7108 79.8891 102.408 97.554 116.778C100.964 119.671 104.107 122.436 106.872 125.019C108.324 126.471 109.637 127.903 110.761 129.316C110.823 129.395 110.953 129.348 110.951 129.247C110.95 129.153 111.065 129.106 111.13 129.174C111.352 129.403 111.571 129.63 111.784 129.855C111.889 129.966 111.933 130.122 111.902 130.272C111.879 130.385 111.856 130.497 111.836 130.611C111.824 130.679 111.841 130.748 111.881 130.805C111.973 130.934 112.063 131.063 112.152 131.193C112.255 131.343 112.513 131.244 112.492 131.062C112.473 130.903 112.668 130.817 112.776 130.937C115.336 133.782 117.011 136.201 117.431 138.019C117.549 138.527 117.39 139.044 117.175 139.52C116.655 140.674 117.639 139.54 118.361 138.301C118.372 138.283 118.386 138.268 118.403 138.257C118.525 138.174 118.671 138.32 118.592 138.444C118.547 138.514 118.503 138.584 118.461 138.654C118.423 138.716 118.499 138.79 118.566 138.753C119.1 138.454 119.568 137.931 119.946 137.417C119.957 137.402 119.971 137.39 119.988 137.382C120.089 137.333 120.254 137.44 120.229 137.55C120.201 137.672 120.176 137.795 120.156 137.919C120.136 138.053 120.339 138.164 120.413 138.019C120.679 137.505 120.99 136.902 121.232 136.276C121.247 136.238 121.272 136.205 121.304 136.18C121.35 136.145 121.396 136.11 121.441 136.075C121.557 135.986 121.736 136.091 121.753 136.236C121.757 136.27 121.803 136.286 121.825 136.253C121.902 136.136 122.107 136.194 122.136 136.331C122.139 136.342 122.141 136.352 122.143 136.362C122.185 136.539 122.441 136.51 122.497 136.362C122.787 135.603 123.328 134.943 123.695 134.216C123.697 134.212 123.7 134.209 123.703 134.207C123.765 134.154 123.829 134.102 123.891 134.049C123.894 134.045 123.899 134.05 123.896 134.054C123.836 134.145 123.957 134.26 124.055 134.201C124.094 134.178 124.141 134.195 124.148 134.24C124.165 134.356 124.178 134.475 124.181 134.599C124.186 134.799 124.463 134.924 124.619 134.767C125.072 134.313 125.434 133.77 125.816 133.255C125.978 133.037 126.126 132.809 126.262 132.575C126.263 132.573 126.267 132.573 126.268 132.57C126.268 132.57 126.268 132.57 126.268 132.57C126.27 132.568 126.273 132.569 126.273 132.571C126.287 132.799 126.313 133.026 126.38 133.252C126.427 133.41 126.687 133.417 126.729 133.252C126.761 133.131 126.792 133.009 126.823 132.886C126.836 132.835 126.856 132.786 126.882 132.74C127.217 132.149 127.536 131.552 127.847 130.951C127.897 130.856 128.04 130.891 128.04 130.999C128.042 131.207 128.345 131.23 128.415 131.046C128.581 130.612 128.767 130.194 128.968 129.784C129.127 129.459 129.582 129.547 129.587 129.908C129.59 130.153 129.963 130.143 129.991 129.908C129.997 129.848 130.008 129.789 130.019 129.731C130.034 129.653 130.212 129.57 130.238 129.496C130.266 129.413 130.293 129.329 130.319 129.246C130.476 128.745 130.679 128.259 130.925 127.796C131.036 127.588 131.143 127.376 131.242 127.163C131.244 127.158 131.247 127.153 131.25 127.149C131.293 127.096 131.384 127.134 131.373 127.202C131.302 127.643 131.19 128.092 131.026 128.555C130.96 128.741 131.248 128.836 131.356 128.682C131.651 128.259 131.871 127.825 132.024 127.376C132.053 127.29 132.133 127.231 132.19 127.162C132.614 126.652 132.943 126.069 133.151 125.452C133.177 125.374 133.383 125.31 133.464 125.293C133.493 125.287 133.527 125.293 133.555 125.305C133.619 125.335 133.702 125.328 133.735 125.257C134.051 124.586 134.384 123.868 134.545 123.132C134.579 122.976 134.725 122.876 134.84 122.987C134.901 123.045 135.006 123.028 135.049 122.961C135.242 122.666 135.413 122.36 135.559 122.046C135.594 121.982 135.688 122.002 135.691 122.075C135.722 122.683 135.739 123.294 135.697 123.908C135.682 124.137 136.03 124.154 136.105 123.959C136.34 123.337 136.466 122.704 136.553 122.065C136.625 121.539 136.758 121.022 136.956 120.529C137.074 120.235 137.186 119.939 137.291 119.642C137.296 119.628 137.304 119.615 137.313 119.604C137.363 119.541 137.45 119.553 137.479 119.628C137.531 119.759 137.572 119.894 137.589 120.035C137.605 120.17 137.826 120.272 137.902 120.114C137.94 120.036 137.969 119.956 138.005 119.878C138.015 119.863 138.031 119.857 138.036 119.838C138.045 119.808 138.052 119.778 138.061 119.748C138.101 119.656 138.142 119.565 138.181 119.474C138.2 119.428 138.25 119.413 138.288 119.382C138.567 119.15 138.632 118.641 138.753 118.327C138.772 118.276 138.86 118.301 138.851 118.355C138.794 118.713 138.757 119.073 138.741 119.435C138.73 119.666 139.118 119.714 139.175 119.489C139.25 119.196 139.318 118.893 139.382 118.586C139.412 118.436 139.846 118.22 139.875 118.069C139.939 117.755 140.006 117.413 140.059 117.059C140.061 117.045 140.064 117.031 140.069 117.017C140.111 116.89 140.156 116.764 140.202 116.639C140.24 116.536 140.377 116.544 140.411 116.649C140.476 116.886 140.872 116.785 140.807 116.548C140.725 116.252 140.668 115.946 140.621 115.635C140.614 115.59 140.619 115.545 140.635 115.502C140.738 115.229 140.834 114.955 140.914 114.679C140.94 114.591 141.077 114.594 141.093 114.684C141.117 114.822 141.288 114.927 141.291 115.067C141.295 115.25 141.298 115.434 141.312 115.617C141.336 115.906 141.748 115.893 141.787 115.617C141.961 114.413 142.009 113.203 142.024 111.989C142.03 111.646 142.08 111.305 142.166 110.972C142.175 110.937 142.185 110.902 142.194 110.866C142.201 110.844 142.208 110.82 142.214 110.797C142.226 110.757 142.252 110.722 142.283 110.694C142.344 110.637 142.396 110.557 142.441 110.462C142.496 110.346 142.671 110.362 142.671 110.49C142.671 110.792 143.161 110.858 143.242 110.56C143.512 109.575 143.835 108.29 143.855 107.069C143.9 106.685 143.934 106.303 143.951 105.922C143.958 105.771 144.103 105.756 144.1 105.908C144.092 106.235 144.634 106.233 144.645 105.908C144.652 105.719 144.643 105.536 144.625 105.357C144.532 103.816 144 102.328 143.916 100.792C143.911 100.688 144.057 100.65 144.116 100.735C144.204 100.859 144.431 100.929 144.473 101.075C144.523 101.25 144.57 101.426 144.61 101.604C144.666 101.856 145.088 101.794 145.086 101.544C145.079 100.765 145.049 99.9588 144.961 99.1561C144.945 99.0115 145.162 98.9538 145.209 99.0914C145.299 99.3539 145.722 99.2469 145.654 98.9779C144.885 95.9454 146.142 92.3895 149.259 92.6626C150.235 92.7481 151.316 92.9593 152.558 93.1605C154.133 93.4164 156.114 93.4911 157.525 92.6389C159.966 91.1647 161.926 88.4458 162.706 85.6515C162.885 85.0074 163.435 84.5152 164.092 84.3905C166.162 83.9971 168.033 83.9854 170.13 84.1072C170.156 84.1085 170.155 84.074 170.13 84.0714C168.539 83.9038 167.065 83.7662 165.465 83.92C164.731 83.9903 164.044 84.1326 163.368 84.1965C163.177 84.2147 163.024 84.0471 163.041 83.8552C163.053 83.7285 163.137 83.6201 163.258 83.5802C165.482 82.8455 167.655 81.9925 169.998 83.1294C170.029 83.1445 170.057 83.1012 170.025 83.0855C167.865 82.0072 165.574 82.5947 163.299 83.2315C163.185 83.2636 163.078 83.176 163.077 83.0568C163.077 83.0087 163.104 82.9664 163.15 82.9541C164.043 82.7175 164.927 82.449 165.834 82.2335C168.365 81.6333 170.718 81.6157 173.305 81.7119C173.338 81.7132 173.337 81.6678 173.305 81.6659C170.914 81.5022 168.696 81.4076 166.353 81.9502C164.638 82.3473 162.875 81.135 162.134 79.5378C161.837 78.8973 161.503 78.2574 161.188 77.581C159.858 74.7265 160.149 71.3873 158.59 68.629C156.717 65.3175 153.636 64.0488 150.434 62.5285C148.858 61.7803 148.017 60.1984 148.557 58.5396C148.607 58.3864 148.36 58.3288 148.303 58.4742C148.295 58.4937 148.286 58.5193 148.275 58.55C148.189 58.8071 147.992 59.0333 147.98 59.3043C147.977 59.376 147.97 59.5147 147.95 59.5835C147.945 59.5977 147.941 59.6118 147.936 59.6258C147.769 60.1128 147.62 60.3907 147.665 59.5613C147.673 59.3493 147.685 59.1377 147.701 58.9263C147.729 58.5621 147.928 58.1805 147.995 57.8214C148.054 57.5061 148 57.2259 148.02 56.9058C148.026 56.8133 148.03 56.7198 148.032 56.625C148.035 56.4909 147.801 56.4555 147.775 56.5923C147.713 56.923 147.657 57.2536 147.608 57.583C147.607 57.588 147.606 57.5929 147.605 57.5978C147.519 57.8718 147.43 58.1565 147.407 58.316C147.407 58.3203 147.401 58.3203 147.401 58.3159C147.401 58.3157 147.401 58.3155 147.401 58.3153C147.4 57.922 147.409 57.5276 147.431 57.1344C147.506 56.1263 147.641 55.1308 147.809 54.1326C147.842 53.9258 147.534 53.8355 147.464 54.0436C147.412 54.2027 147.356 54.3525 147.3 54.5069C147.591 53.5268 147.65 52.4351 147.704 51.3902C147.731 50.8778 147.856 50.3755 147.904 49.8647C147.905 49.8621 147.906 49.834 147.907 49.834H147.906C147.907 49.834 147.912 49.8256 147.913 49.8105C147.929 49.6135 147.583 49.5939 147.542 49.787C147.514 49.9158 147.472 50.0398 147.434 50.1648C147.427 50.1897 147.397 50.1995 147.391 50.2247C147.344 50.3955 147.171 50.3342 147.202 50.1598C147.303 49.5925 147.42 49.0243 147.486 48.4431C147.504 48.2785 147.256 48.0524 147.297 47.892C147.458 47.2643 147.622 46.6371 147.857 46.0223C147.914 45.873 147.691 45.8183 147.605 45.9231C147.446 46.1154 147.133 45.9815 147.194 45.7396C147.285 45.3766 147.388 45.0149 147.493 44.6508C147.561 44.4171 147.235 44.3179 147.095 44.4953C147.075 44.5185 147.037 44.5155 147.013 44.496C146.965 44.4561 146.893 44.445 146.825 44.4994C146.751 44.5585 146.665 44.6005 146.572 44.6199C146.428 44.6499 146.291 44.6994 146.14 44.8042C146.032 44.8793 145.924 44.9551 145.844 45.0471C145.768 45.1345 145.703 45.234 145.612 45.3063C145.209 45.6297 144.798 45.9494 144.4 46.278C144.13 46.5025 143.838 46.7919 143.505 46.9346C143.428 46.9686 143.391 47.0699 143.319 47.1137C142.685 47.4976 142.131 48.0285 141.419 48.3163C141.197 48.4053 141.288 48.7012 141.481 48.7581C141.558 48.781 141.636 48.7998 141.714 48.8199C141.725 48.8228 141.725 48.8355 141.716 48.842C141.52 48.9879 141.323 49.1327 141.111 49.2527C140.703 49.4827 140.284 49.6914 139.825 49.8299C139.622 49.8908 139.66 50.1643 139.874 50.1715C139.904 50.1725 139.934 50.1727 139.964 50.1722C140.091 50.17 140.194 50.3807 140.096 50.4617C140.09 50.4667 140.084 50.471 140.077 50.4746C139.537 50.7571 138.979 51.0072 138.464 51.3324C138.4 51.3729 138.361 51.4407 138.385 51.5134C138.455 51.732 138.212 51.8947 138.001 51.9858C137.113 52.3698 136.236 52.7906 135.325 53.1017C135.127 53.1698 135.157 53.4349 135.376 53.4453C135.577 53.4543 135.662 53.7575 135.486 53.8569C134.936 54.1676 134.396 54.4933 133.86 54.823C133.71 54.9146 133.733 55.123 133.909 55.1728C133.96 55.1879 133.973 55.2541 133.93 55.2866C133.829 55.3646 133.727 55.4429 133.625 55.5212C133.614 55.5296 133.602 55.5371 133.59 55.5435C133.418 55.6352 133.24 55.7182 133.07 55.8181C132.278 56.2809 131.506 56.6789 130.573 56.8183C130.447 56.8373 130.426 57.0229 130.537 57.072C130.678 57.1342 130.806 57.1873 130.918 57.2336C131.071 57.2969 131.092 57.4908 130.962 57.5932C130.932 57.6175 130.895 57.6337 130.856 57.6397C130.746 57.6569 130.617 57.6755 130.466 57.6948C130.188 57.7308 129.914 57.7667 129.643 57.8053C122.955 58.3329 116.703 59.8887 112.782 65.5761C111.652 67.215 110.603 68.8969 109.488 70.5354C109.176 70.9932 108.77 71.4189 108.226 71.5213C108.04 71.5566 108.118 71.8195 108.304 71.7841C108.335 71.7787 108.363 71.7705 108.391 71.7622C108.4 71.7598 108.406 71.7716 108.399 71.777C108.388 71.7849 108.38 71.7936 108.373 71.8028C108.301 71.9028 108.394 72.1007 108.322 72.2007C108.303 72.2261 108.278 72.2461 108.25 72.259C107.837 72.4452 107.418 72.6279 107.007 72.8314C106.832 72.9185 106.961 73.1348 107.132 73.1086C107.271 73.0878 107.361 73.2633 107.256 73.3567C107.149 73.4519 107.041 73.5466 106.933 73.6408C106.798 73.7578 106.589 73.6978 106.532 73.5288C106.297 72.8299 106.026 72.1409 105.705 71.4659C105.592 71.2291 105.423 71.0224 105.203 70.8804C102.514 69.1485 97.6681 69.2893 95.073 69.3245C91.7705 69.3686 88.467 69.309 85.1661 69.3592C79.9942 69.4385 75.1165 70.2915 70.1574 68.5492C61.1672 65.393 60.5102 52.5906 61.449 45.2839C61.449 45.277 61.451 45.2723 61.4456 45.268C61.3386 45.1828 61.3966 44.9792 61.5638 44.976C64.6478 44.9173 67.5351 43.944 70.4541 43.1167C73.1727 42.3464 76.8407 42.2643 79.2463 40.8298C83.4383 38.3302 82.2199 33.3962 85.7352 30.451C91.5321 25.5951 101.88 22.7399 109.469 22.1975C119.114 21.5072 128.392 24.5123 136.009 30.002C138.926 32.1051 141.201 34.4859 143.503 36.9599C144.465 37.9939 145.603 38.8676 146.911 39.3997C147.895 39.7997 148.909 40.1163 150.007 40.208C150.094 40.2148 150.092 40.3233 150.007 40.3317C149.554 40.3775 149.171 41.4348 149.562 41.6687C150.784 42.399 151.996 43.1439 153.172 43.9389C153.39 44.0867 153.427 44.4933 153.087 44.5444C152.458 44.6385 151.831 44.6907 151.202 44.7226C151.061 44.7298 150.993 44.8968 151.088 45.0018C151.097 45.0119 151.107 45.0208 151.118 45.0284C153.537 46.6726 155.793 48.5179 158.297 50.057C158.552 50.2139 158.538 50.6131 158.207 50.687C157.699 50.8005 157.186 50.8872 156.671 50.9669C156.33 51.0198 156.165 51.4114 156.369 51.6904C156.446 51.7952 156.563 51.8631 156.692 51.8788C158.05 52.0435 159.419 52.3154 160.697 52.6231C160.827 52.6535 160.797 52.8335 160.666 52.8348C159.972 52.8477 159.539 54.0758 160.073 54.5212C164.659 58.3524 167.195 63.7709 175.405 65.751C175.698 65.8218 175.461 66.2882 175.162 66.2941C173.953 66.3211 172.791 66.1578 171.647 65.9075C171.136 65.7955 170.779 66.4529 171.168 66.8037C171.209 66.8407 171.256 66.8707 171.307 66.892C173.226 67.6924 175.233 68.2335 177.508 68.4725C177.609 68.4832 177.612 68.6129 177.508 68.6198C176.33 68.6946 174.964 68.621 173.589 68.3879C173.364 68.35 173.226 68.6322 173.397 68.7823C173.416 68.7993 173.438 68.8128 173.462 68.8222C174.879 69.3784 176.309 69.9046 177.933 70.0353C178.037 70.0429 178.08 70.2006 177.961 70.2173C177.213 70.3173 176.451 70.2902 175.687 70.1778C175.455 70.1436 175.301 70.4531 175.48 70.6049C176.082 71.0575 176.696 71.4962 177.347 71.8946C177.522 72.0017 177.752 71.9367 177.855 71.7587C179.29 69.2551 180.511 66.6831 181.463 64.0359C193.985 29.1905 157.942 -16.2228 121.979 5.78811C117.143 8.74798 110.874 8.76073 106.039 5.79885C99.6461 1.88219 93.2499 0.0967475 87.1245 0.0041596ZM143.764 47.216C143.786 47.216 143.799 47.2407 143.786 47.2584C143.345 47.8683 142.894 48.078 142.439 48.4779C142.423 48.492 142.402 48.4981 142.381 48.4923C142.324 48.4761 142.313 48.3913 142.362 48.3587C142.607 48.1965 142.839 48.0198 143.061 47.8287C143.282 47.6375 143.517 47.216 143.764 47.216Z" fill="url(#paint0_linear_27_1609)"/>
<path d="M21.7285 176.314L19.9512 176.232C19.9512 175.412 19.9603 174.496 19.9785 173.484C20.0059 172.464 20.0378 171.47 20.0742 170.504C20.0742 170.404 20.0788 170.281 20.0879 170.135C20.097 169.989 20.1016 169.866 20.1016 169.766L20.3613 162.793C20.4069 162.055 20.457 161.28 20.5117 160.469C20.5664 159.648 20.653 158.673 20.7715 157.543L20.8262 156.723L20.9902 156.531C21.1999 156.495 21.5918 156.458 22.166 156.422C22.7493 156.385 23.4238 156.354 24.1895 156.326C24.9642 156.29 25.7435 156.258 26.5273 156.23C27.3203 156.203 28.0358 156.18 28.6738 156.162C29.321 156.144 29.7995 156.135 30.1094 156.135H30.3691L29.8496 163.107H37.2051C37.2142 163.053 37.2279 162.829 37.2461 162.438C37.2643 162.046 37.2871 161.567 37.3145 161.002C37.3418 160.437 37.3691 159.854 37.3965 159.252C37.4238 158.65 37.4466 158.099 37.4648 157.598C37.4831 157.087 37.4922 156.709 37.4922 156.463C37.8021 156.417 38.153 156.385 38.5449 156.367C38.946 156.349 39.2878 156.335 39.5703 156.326L47.4453 156.121C47.4453 156.167 47.4316 156.417 47.4043 156.873C47.3861 157.329 47.3587 157.912 47.3223 158.623C47.2858 159.325 47.2448 160.077 47.1992 160.879C47.1628 161.681 47.1217 162.456 47.0762 163.203C47.0397 163.941 47.0078 164.584 46.9805 165.131C46.9622 165.669 46.9531 166.024 46.9531 166.197C46.9531 166.307 46.9486 166.416 46.9395 166.525C46.9395 166.635 46.9303 166.84 46.9121 167.141C46.903 167.441 46.8848 167.92 46.8574 168.576C46.8392 169.232 46.8118 170.153 46.7754 171.338C46.748 172.523 46.7116 174.068 46.666 175.973C46.5384 175.973 46.2331 175.977 45.75 175.986C45.276 175.995 44.6973 176.005 44.0137 176.014C43.3301 176.032 42.61 176.046 41.8535 176.055C41.097 176.073 40.3678 176.087 39.666 176.096C38.9733 176.114 38.3717 176.128 37.8613 176.137C37.36 176.146 37.0228 176.15 36.8496 176.15C36.8496 175.904 36.8542 175.531 36.8633 175.029C36.8815 174.519 36.8997 173.958 36.918 173.348C36.9362 172.737 36.9544 172.14 36.9727 171.557C37 170.973 37.0228 170.486 37.041 170.094H29.7402L29.3848 175.973L22.002 176.314H21.7285ZM62.1152 176.506C60.8574 176.506 59.6042 176.406 58.3555 176.205C57.1068 176.014 55.9674 175.658 54.9375 175.139C53.9076 174.619 53.0827 173.89 52.4629 172.951C51.8431 172.003 51.5332 170.777 51.5332 169.273C51.5332 167.35 52.0163 165.81 52.9824 164.652C53.9577 163.495 55.2975 162.661 57.002 162.15C58.7155 161.631 60.6797 161.371 62.8945 161.371C64.8359 161.371 66.5723 161.663 68.1035 162.246C69.6348 162.82 70.8379 163.663 71.7129 164.775C72.597 165.878 73.0391 167.223 73.0391 168.809C73.0391 170.139 72.8158 171.265 72.3691 172.186C71.9316 173.097 71.3346 173.84 70.5781 174.414C69.8307 174.979 68.9831 175.417 68.0352 175.727C67.0964 176.027 66.1165 176.232 65.0957 176.342C64.0749 176.451 63.0814 176.506 62.1152 176.506ZM62.334 172.773C63.4733 172.773 64.3073 172.4 64.8359 171.652C65.3737 170.896 65.6426 169.966 65.6426 168.863C65.6426 167.906 65.3509 167.095 64.7676 166.43C64.1934 165.764 63.3594 165.432 62.2656 165.432C61.5182 165.432 60.9121 165.618 60.4473 165.992C59.9824 166.366 59.6406 166.84 59.4219 167.414C59.2122 167.979 59.1074 168.562 59.1074 169.164C59.1074 170.312 59.3672 171.201 59.8867 171.83C60.4154 172.459 61.2311 172.773 62.334 172.773ZM76.416 180.826C76.4069 180.571 76.3978 180.302 76.3887 180.02C76.3796 179.737 76.375 179.454 76.375 179.172L77.0586 162.82C77.4323 162.711 77.8743 162.606 78.3848 162.506C78.9043 162.396 79.4284 162.301 79.957 162.219C80.4857 162.137 80.946 162.068 81.3379 162.014L82.8145 164.734C83.7077 163.622 84.8743 162.843 86.3145 162.396C87.7637 161.95 89.2949 161.727 90.9082 161.727C92.485 161.727 93.9023 162.018 95.1602 162.602C96.4271 163.176 97.4251 163.96 98.1543 164.953C98.8926 165.947 99.2617 167.077 99.2617 168.344C99.2617 169.574 99.0065 170.691 98.4961 171.693C97.9948 172.687 97.3066 173.544 96.4316 174.264C95.5566 174.984 94.554 175.54 93.4238 175.932C92.3027 176.314 91.1224 176.506 89.8828 176.506C88.7982 176.506 87.7591 176.365 86.7656 176.082C85.7721 175.809 84.9336 175.453 84.25 175.016V175.111C84.25 175.257 84.2318 175.599 84.1953 176.137C84.168 176.684 84.1361 177.322 84.0996 178.051C84.0723 178.789 84.0586 179.523 84.0586 180.252C83.1107 180.343 82.1309 180.434 81.1191 180.525C80.1074 180.617 79.1914 180.689 78.3711 180.744C77.5508 180.799 76.9447 180.826 76.5527 180.826H76.416ZM87.7227 172.814C88.4245 172.814 89.0352 172.623 89.5547 172.24C90.0742 171.848 90.4753 171.352 90.7578 170.75C91.0404 170.139 91.1816 169.506 91.1816 168.85C91.1816 167.847 90.8809 167.077 90.2793 166.539C89.6868 166.001 88.9577 165.732 88.0918 165.732C87.2077 165.732 86.515 165.874 86.0137 166.156C85.5215 166.439 85.166 166.799 84.9473 167.236C84.7285 167.665 84.5918 168.116 84.5371 168.59C84.4824 169.055 84.4551 169.474 84.4551 169.848C84.4551 170.632 84.5964 171.242 84.8789 171.68C85.1706 172.108 85.5625 172.404 86.0547 172.568C86.556 172.732 87.112 172.814 87.7227 172.814ZM112.688 176.52C111.421 176.52 110.172 176.406 108.941 176.178C107.72 175.95 106.613 175.562 105.619 175.016C104.626 174.46 103.833 173.708 103.24 172.76C102.648 171.812 102.352 170.613 102.352 169.164C102.352 167.669 102.666 166.439 103.295 165.473C103.933 164.497 104.767 163.736 105.797 163.189C106.827 162.643 107.952 162.26 109.174 162.041C110.395 161.813 111.589 161.699 112.756 161.699C113.686 161.699 114.647 161.813 115.641 162.041C116.634 162.269 117.555 162.633 118.402 163.135C119.25 163.636 119.929 164.288 120.439 165.09C120.95 165.892 121.182 166.867 121.137 168.016C121.137 168.125 121.128 168.23 121.109 168.33L120.986 170.012H109.898C110.117 170.841 110.646 171.484 111.484 171.939C112.323 172.395 113.371 172.623 114.629 172.623C115.404 172.623 116.242 172.527 117.145 172.336C118.047 172.145 118.995 171.844 119.988 171.434H120.727L120.467 174.906C120.102 175.18 119.528 175.439 118.744 175.686C117.969 175.932 117.058 176.132 116.01 176.287C114.962 176.442 113.854 176.52 112.688 176.52ZM115.107 167.469C115.098 166.576 114.889 165.96 114.479 165.623C114.077 165.286 113.54 165.117 112.865 165.117C112.054 165.117 111.425 165.354 110.979 165.828C110.541 166.302 110.272 166.849 110.172 167.469H115.107ZM127.275 176.178C126.747 176.178 126.414 176.16 126.277 176.123C126.296 175.868 126.309 175.617 126.318 175.371C126.327 175.125 126.337 174.888 126.346 174.66L126.387 172.309C126.405 171.762 126.428 171.01 126.455 170.053C126.482 169.096 126.51 168.038 126.537 166.881C126.574 165.714 126.605 164.534 126.633 163.34C126.66 162.137 126.683 161.016 126.701 159.977C126.729 158.928 126.751 158.058 126.77 157.365C129.03 156.964 131.436 156.659 133.988 156.449C136.54 156.24 138.992 156.135 141.344 156.135C142.793 156.135 144.201 156.24 145.568 156.449C146.945 156.659 148.184 157.023 149.287 157.543C150.399 158.062 151.279 158.778 151.926 159.689C152.582 160.601 152.91 161.758 152.91 163.162C152.91 164.557 152.568 165.701 151.885 166.594C151.201 167.478 150.285 168.166 149.137 168.658C147.988 169.15 146.708 169.492 145.295 169.684C143.891 169.875 142.46 169.971 141.002 169.971C140.419 169.971 139.776 169.966 139.074 169.957C138.382 169.939 137.748 169.925 137.174 169.916C136.609 169.898 136.217 169.889 135.998 169.889L135.711 175.74C135.374 175.768 134.85 175.804 134.139 175.85C133.437 175.895 132.658 175.945 131.801 176C130.953 176.046 130.124 176.087 129.312 176.123C128.501 176.16 127.822 176.178 127.275 176.178ZM139.033 165.432C140.473 165.432 141.517 165.236 142.164 164.844C142.82 164.443 143.148 163.896 143.148 163.203C143.148 162.647 143.012 162.242 142.738 161.986C142.465 161.722 142.118 161.553 141.699 161.48C141.289 161.398 140.87 161.357 140.441 161.357C140.296 161.357 140.022 161.367 139.621 161.385C139.22 161.403 138.783 161.43 138.309 161.467C137.844 161.503 137.424 161.544 137.051 161.59C136.686 161.635 136.454 161.681 136.354 161.727C136.262 162.72 136.208 163.527 136.189 164.146C136.171 164.757 136.162 165.113 136.162 165.213C137.219 165.359 138.176 165.432 139.033 165.432ZM164.312 176.533C163.292 176.533 162.271 176.396 161.25 176.123C160.229 175.859 159.295 175.444 158.447 174.879C157.609 174.305 156.934 173.576 156.424 172.691C155.923 171.798 155.672 170.732 155.672 169.492C155.672 167.751 156.064 166.293 156.848 165.117C157.641 163.932 158.675 163.039 159.951 162.438C161.236 161.836 162.617 161.535 164.094 161.535C165.616 161.535 166.892 161.717 167.922 162.082C168.961 162.438 169.882 163.13 170.684 164.16L170.711 161.248L176.891 161.768L176.85 175.699L171.709 176.082L170.875 173.389C170.346 174.245 169.544 174.984 168.469 175.604C167.393 176.223 166.008 176.533 164.312 176.533ZM166.637 172.391C168.706 172.345 169.74 171.27 169.74 169.164C169.74 168.298 169.476 167.574 168.947 166.99C168.419 166.398 167.68 166.102 166.732 166.102C165.739 166.102 164.978 166.439 164.449 167.113C163.93 167.788 163.67 168.585 163.67 169.506C163.67 170.518 163.971 171.251 164.572 171.707C165.174 172.163 165.862 172.391 166.637 172.391ZM204.59 176.027C201.792 176.109 199.773 176.15 198.533 176.15C197.913 176.15 197.408 176.15 197.016 176.15C196.624 176.15 196.346 176.155 196.182 176.164C196.09 175.699 195.94 174.934 195.73 173.867C195.521 172.792 195.247 171.415 194.91 169.738L193.324 175.822C190.198 175.986 187.878 176.068 186.365 176.068H184.848C182.961 169.843 181.512 165.286 180.5 162.396C181.466 162.378 182.359 162.36 183.18 162.342C184.009 162.314 184.674 162.292 185.176 162.273L186.543 162.205C187.135 162.205 187.641 162.191 188.061 162.164L189.578 170.695L191.396 163.805L191.807 162.123L196.209 162.082C197.148 162.082 198.068 162.109 198.971 162.164C199.098 162.82 199.317 163.855 199.627 165.268C199.946 166.671 200.352 168.453 200.844 170.613L202.908 162.164L204.768 162.027L210.018 162C209.571 163.057 209.12 164.165 208.664 165.322C208.208 166.471 207.775 167.592 207.365 168.686C206.955 169.77 206.586 170.759 206.258 171.652C205.93 172.536 205.665 173.247 205.465 173.785C205.246 174.35 205.068 174.797 204.932 175.125C204.804 175.444 204.69 175.745 204.59 176.027Z" fill="url(#paint1_linear_27_1609)"/>
<defs>
<linearGradient id="paint0_linear_27_1609" x1="70.25" y1="19.0741" x2="199.384" y2="120.392" gradientUnits="userSpaceOnUse">
<stop stop-color="#1B232C"/>
<stop offset="0.324788" stop-color="#44174E"/>
<stop offset="0.475661" stop-color="#662249"/>
<stop offset="0.75" stop-color="#ED9E59"/>
</linearGradient>
<linearGradient id="paint1_linear_27_1609" x1="42.75" y1="153.769" x2="55.2768" y2="217.794" gradientUnits="userSpaceOnUse">
<stop stop-color="#1B232C"/>
<stop offset="0.324788" stop-color="#44174E"/>
<stop offset="0.475661" stop-color="#662249"/>
<stop offset="0.75" stop-color="#ED9E59"/>
</linearGradient>
</defs>
</svg>
